<mxfile host="app.diagrams.net" agent="Mozilla/5.0 (Windows NT 10.0; Win64; x64; rv:132.0) Gecko/20100101 Firefox/132.0" version="24.8.3">
  <diagram name="Page-1" id="MWtpYOgVLucBzIQKGyR7">
    <mxGraphModel dx="1807" dy="598" grid="1" gridSize="10" guides="1" tooltips="1" connect="1" arrows="1" fold="1" page="1" pageScale="1" pageWidth="850" pageHeight="1100" background="none" math="0" shadow="0">
      <root>
        <mxCell id="0" />
        <mxCell id="1" parent="0" />
        <mxCell id="IuNj6Q_mK7q1State64F-1" value="Cluster 1" style="rounded=0;whiteSpace=wrap;html=1;horizontal=1;verticalAlign=top;fillColor=#f5f5f5;fontColor=#333333;strokeColor=#666666;" vertex="1" parent="1">
          <mxGeometry x="250" y="30" width="460" height="350" as="geometry" />
        </mxCell>
        <mxCell id="IuNj6Q_mK7q1State64F-12" value="Team 1 Network" style="rounded=0;whiteSpace=wrap;html=1;verticalAlign=top;fillColor=#dae8fc;strokeColor=#6c8ebf;" vertex="1" parent="1">
          <mxGeometry x="280" y="60" width="250" height="300" as="geometry" />
        </mxCell>
        <mxCell id="IuNj6Q_mK7q1State64F-5" value="Storage" style="shape=cylinder3;whiteSpace=wrap;html=1;boundedLbl=1;backgroundOutline=1;size=15;fillColor=#e1d5e7;strokeColor=#9673a6;verticalAlign=top;" vertex="1" parent="1">
          <mxGeometry x="550" y="160" width="130" height="200" as="geometry" />
        </mxCell>
        <mxCell id="IuNj6Q_mK7q1State64F-7" value="Container 1" style="rounded=0;whiteSpace=wrap;html=1;verticalAlign=top;fillColor=#d5e8d4;strokeColor=#82b366;" vertex="1" parent="1">
          <mxGeometry x="280" y="90" width="250" height="240" as="geometry" />
        </mxCell>
        <mxCell id="IuNj6Q_mK7q1State64F-13" value="&lt;div&gt;ssh root@&amp;lt;YOUR_IP&amp;gt; -p &amp;lt;YOUR_PORT&amp;gt; \&lt;/div&gt;&lt;div&gt;&amp;nbsp;&amp;nbsp;&amp;nbsp; -L 8888:localhost:8888 \&lt;/div&gt;&lt;div&gt;&amp;nbsp;&amp;nbsp;&amp;nbsp; -L 6006:localhost:6006&lt;/div&gt;" style="text;html=1;align=left;verticalAlign=middle;whiteSpace=wrap;rounded=0;fontFamily=Consolas;" vertex="1" parent="1">
          <mxGeometry x="80" y="390" width="270" height="50" as="geometry" />
        </mxCell>
        <mxCell id="IuNj6Q_mK7q1State64F-85" style="edgeStyle=orthogonalEdgeStyle;rounded=0;orthogonalLoop=1;jettySize=auto;html=1;entryX=0;entryY=0.5;entryDx=0;entryDy=0;fontFamily=Helvetica;fontSize=12;fontColor=default;endArrow=none;endFill=0;" edge="1" parent="1" source="IuNj6Q_mK7q1State64F-20" target="IuNj6Q_mK7q1State64F-83">
          <mxGeometry relative="1" as="geometry" />
        </mxCell>
        <mxCell id="IuNj6Q_mK7q1State64F-20" value="/workspace/" style="text;html=1;align=center;verticalAlign=middle;whiteSpace=wrap;rounded=0;fillColor=default;strokeColor=default;" vertex="1" parent="1">
          <mxGeometry x="440" y="280" width="90" height="25" as="geometry" />
        </mxCell>
        <mxCell id="IuNj6Q_mK7q1State64F-21" value="&lt;div&gt;SSH&lt;/div&gt;" style="rounded=0;whiteSpace=wrap;html=1;verticalAlign=top;fillColor=#ffe6cc;strokeColor=#d79b00;labelBackgroundColor=none;shadow=0;glass=0;" vertex="1" parent="1">
          <mxGeometry x="330" y="120" width="80" height="90" as="geometry" />
        </mxCell>
        <mxCell id="IuNj6Q_mK7q1State64F-22" value="Jupyter Lab" style="rounded=0;whiteSpace=wrap;html=1;verticalAlign=top;fillColor=#fff2cc;strokeColor=#d6b656;" vertex="1" parent="1">
          <mxGeometry x="330" y="210" width="80" height="60" as="geometry" />
        </mxCell>
        <mxCell id="IuNj6Q_mK7q1State64F-23" value="Tensorboard" style="rounded=0;whiteSpace=wrap;html=1;verticalAlign=top;fillColor=#f8cecc;strokeColor=#b85450;" vertex="1" parent="1">
          <mxGeometry x="330" y="270" width="80" height="60" as="geometry" />
        </mxCell>
        <mxCell id="IuNj6Q_mK7q1State64F-25" value="Client 1" style="rounded=0;whiteSpace=wrap;html=1;verticalAlign=top;fillColor=#f5f5f5;fontColor=#333333;strokeColor=#666666;" vertex="1" parent="1">
          <mxGeometry x="30" y="90" width="120" height="290" as="geometry" />
        </mxCell>
        <mxCell id="IuNj6Q_mK7q1State64F-35" value="SSH Tunneling" style="rounded=1;whiteSpace=wrap;html=1;fillStyle=diag;align=center;verticalAlign=top;fontFamily=Helvetica;fontSize=12;" vertex="1" parent="1">
          <mxGeometry x="100" y="130" width="240" height="70" as="geometry" />
        </mxCell>
        <mxCell id="IuNj6Q_mK7q1State64F-40" value="8888" style="text;html=1;align=center;verticalAlign=middle;whiteSpace=wrap;rounded=0;fontFamily=Helvetica;fontSize=12;fillColor=default;gradientColor=none;strokeColor=default;" vertex="1" parent="1">
          <mxGeometry x="310" y="240" width="40" height="20" as="geometry" />
        </mxCell>
        <mxCell id="IuNj6Q_mK7q1State64F-41" value="6006" style="text;html=1;align=center;verticalAlign=middle;whiteSpace=wrap;rounded=0;fontFamily=Helvetica;fontSize=12;fillColor=default;gradientColor=none;strokeColor=default;" vertex="1" parent="1">
          <mxGeometry x="310" y="300" width="40" height="20" as="geometry" />
        </mxCell>
        <mxCell id="IuNj6Q_mK7q1State64F-43" value="22" style="text;html=1;align=center;verticalAlign=middle;whiteSpace=wrap;rounded=0;fontFamily=Helvetica;fontSize=12;fillColor=default;gradientColor=none;strokeColor=default;" vertex="1" parent="1">
          <mxGeometry x="310" y="155" width="40" height="20" as="geometry" />
        </mxCell>
        <mxCell id="IuNj6Q_mK7q1State64F-49" value="" style="edgeStyle=orthogonalEdgeStyle;rounded=0;orthogonalLoop=1;jettySize=auto;html=1;fontFamily=Helvetica;fontSize=12;fontColor=default;startArrow=none;startFill=0;endArrow=none;endFill=0;" edge="1" parent="1" source="IuNj6Q_mK7q1State64F-46" target="IuNj6Q_mK7q1State64F-43">
          <mxGeometry relative="1" as="geometry" />
        </mxCell>
        <mxCell id="IuNj6Q_mK7q1State64F-46" value="30122" style="text;html=1;align=center;verticalAlign=middle;whiteSpace=wrap;rounded=0;fontFamily=Helvetica;fontSize=12;fillColor=default;gradientColor=none;strokeColor=default;" vertex="1" parent="1">
          <mxGeometry x="230" y="155" width="40" height="20" as="geometry" />
        </mxCell>
        <mxCell id="IuNj6Q_mK7q1State64F-68" style="edgeStyle=orthogonalEdgeStyle;rounded=0;orthogonalLoop=1;jettySize=auto;html=1;entryX=0;entryY=0.5;entryDx=0;entryDy=0;fontFamily=Helvetica;fontSize=12;fontColor=default;startArrow=none;startFill=0;endArrow=none;endFill=0;dashed=1;" edge="1" parent="1" source="IuNj6Q_mK7q1State64F-55" target="IuNj6Q_mK7q1State64F-40">
          <mxGeometry relative="1" as="geometry">
            <Array as="points">
              <mxPoint x="130" y="255" />
              <mxPoint x="130" y="180" />
              <mxPoint x="300" y="180" />
              <mxPoint x="300" y="250" />
            </Array>
          </mxGeometry>
        </mxCell>
        <mxCell id="IuNj6Q_mK7q1State64F-55" value="8888" style="text;html=1;align=center;verticalAlign=middle;whiteSpace=wrap;rounded=0;fontFamily=Helvetica;fontSize=12;fillColor=default;gradientColor=none;strokeColor=default;" vertex="1" parent="1">
          <mxGeometry x="80" y="245" width="40" height="20" as="geometry" />
        </mxCell>
        <mxCell id="IuNj6Q_mK7q1State64F-69" style="edgeStyle=orthogonalEdgeStyle;rounded=0;orthogonalLoop=1;jettySize=auto;html=1;entryX=0;entryY=0.5;entryDx=0;entryDy=0;fontFamily=Helvetica;fontSize=12;fontColor=default;dashed=1;endArrow=none;endFill=0;" edge="1" parent="1" source="IuNj6Q_mK7q1State64F-58" target="IuNj6Q_mK7q1State64F-41">
          <mxGeometry relative="1" as="geometry">
            <Array as="points">
              <mxPoint x="140" y="315" />
              <mxPoint x="140" y="190" />
              <mxPoint x="290" y="190" />
              <mxPoint x="290" y="310" />
            </Array>
          </mxGeometry>
        </mxCell>
        <mxCell id="IuNj6Q_mK7q1State64F-58" value="6006" style="text;html=1;align=center;verticalAlign=middle;whiteSpace=wrap;rounded=0;fontFamily=Helvetica;fontSize=12;fillColor=default;gradientColor=none;strokeColor=default;" vertex="1" parent="1">
          <mxGeometry x="80" y="305" width="40" height="20" as="geometry" />
        </mxCell>
        <mxCell id="IuNj6Q_mK7q1State64F-67" style="edgeStyle=orthogonalEdgeStyle;rounded=0;orthogonalLoop=1;jettySize=auto;html=1;entryX=0;entryY=0.5;entryDx=0;entryDy=0;fontFamily=Helvetica;fontSize=12;fontColor=default;endArrow=none;endFill=0;exitX=0;exitY=0.5;exitDx=0;exitDy=0;startArrow=oval;startFill=1;" edge="1" parent="1" source="IuNj6Q_mK7q1State64F-35" target="IuNj6Q_mK7q1State64F-46">
          <mxGeometry relative="1" as="geometry">
            <mxPoint x="50" y="165" as="sourcePoint" />
            <Array as="points">
              <mxPoint x="170" y="165" />
              <mxPoint x="170" y="165" />
            </Array>
          </mxGeometry>
        </mxCell>
        <mxCell id="IuNj6Q_mK7q1State64F-84" style="edgeStyle=orthogonalEdgeStyle;rounded=0;orthogonalLoop=1;jettySize=auto;html=1;entryX=0;entryY=0.5;entryDx=0;entryDy=0;fontFamily=Helvetica;fontSize=12;fontColor=default;endArrow=none;endFill=0;" edge="1" parent="1" source="IuNj6Q_mK7q1State64F-79" target="IuNj6Q_mK7q1State64F-82">
          <mxGeometry relative="1" as="geometry" />
        </mxCell>
        <mxCell id="IuNj6Q_mK7q1State64F-79" value="&lt;div&gt;/root/.ssh/&lt;/div&gt;" style="rounded=0;whiteSpace=wrap;html=1;fillStyle=diag;strokeColor=default;align=center;verticalAlign=top;fontFamily=Helvetica;fontSize=12;fontColor=default;fillColor=default;" vertex="1" parent="1">
          <mxGeometry x="440" y="245" width="90" height="25" as="geometry" />
        </mxCell>
        <mxCell id="IuNj6Q_mK7q1State64F-82" value="/team1_ssh/" style="rounded=0;whiteSpace=wrap;html=1;fillStyle=diag;strokeColor=default;align=center;verticalAlign=top;fontFamily=Helvetica;fontSize=12;fontColor=default;fillColor=default;" vertex="1" parent="1">
          <mxGeometry x="550" y="245" width="90" height="25" as="geometry" />
        </mxCell>
        <mxCell id="IuNj6Q_mK7q1State64F-83" value="/team1/" style="rounded=0;whiteSpace=wrap;html=1;fillStyle=diag;strokeColor=default;align=center;verticalAlign=top;fontFamily=Helvetica;fontSize=12;fontColor=default;fillColor=default;" vertex="1" parent="1">
          <mxGeometry x="550" y="280" width="90" height="25" as="geometry" />
        </mxCell>
      </root>
    </mxGraphModel>
  </diagram>
</mxfile>
